<?xml version="1.0" encoding="utf-8"?>
<!-- Generator: Adobe Illustrator 22.1.0, SVG Export Plug-In . SVG Version: 6.00 Build 0)  -->
<svg version="1.1"
	 id="svg3728" inkscape:version="0.92.3 (2405546, 2018-03-11)" sodipodi:docname="logo_white.svg" xmlns:cc="http://creativecommons.org/ns#" xmlns:dc="http://purl.org/dc/elements/1.1/" xmlns:inkscape="http://www.inkscape.org/namespaces/inkscape" xmlns:rdf="http://www.w3.org/1999/02/22-rdf-syntax-ns#" xmlns:sodipodi="http://sodipodi.sourceforge.net/DTD/sodipodi-0.dtd" xmlns:svg="http://www.w3.org/2000/svg"
	 xmlns="http://www.w3.org/2000/svg" xmlns:xlink="http://www.w3.org/1999/xlink" x="0px" y="0px" viewBox="0 0 275.1 77.7"
	 style="enable-background:new 0 0 275.1 77.7;" xml:space="preserve">
<style type="text/css">
	.st0{fill:#332D2B;}
</style>
<sodipodi:namedview  bordercolor="#666666" borderopacity="1" fit-margin-bottom="-0.2" fit-margin-left="0" fit-margin-right="0" fit-margin-top="0" gridtolerance="10" guidetolerance="10" id="namedview3730" inkscape:current-layer="svg3728" inkscape:cx="159.15058" inkscape:cy="18.149202" inkscape:pageopacity="0" inkscape:pageshadow="2" inkscape:window-height="745" inkscape:window-maximized="1" inkscape:window-width="1366" inkscape:window-x="-8" inkscape:window-y="-8" inkscape:zoom="2.2425739" objecttolerance="10" pagecolor="#ffffff" showgrid="false">
	</sodipodi:namedview>
<path id="path3724" inkscape:connector-curvature="0" class="st0" d="M0,58.2v19.2h1.8v-8.8v-0.9l0,0l0.5,0.5l9.2,9.2h2.6L3.7,67.3
	l9.3-9.1h-2.3l-8.2,8.2l-0.7,0.7h0V66v-7.8H0z M14.2,67.9c0,1.6,0.2,3,0.7,4.2c0.4,1.2,1.1,2.2,1.9,3.1c0.8,0.8,1.7,1.5,2.8,1.9
	c1.1,0.4,2.2,0.6,3.4,0.6c1.2,0,2.4-0.2,3.4-0.6c1.1-0.4,2-1.1,2.8-1.9c0.8-0.8,1.4-1.9,1.8-3.1c0.4-1.2,0.7-2.6,0.7-4.2
	c0-1-0.1-2-0.3-3c-0.2-1-0.6-1.9-1-2.7c-0.5-0.8-1-1.6-1.7-2.2c-0.7-0.6-1.5-1.1-2.4-1.5c-0.9-0.3-2-0.5-3.2-0.5
	c-1.2,0-2.2,0.2-3.2,0.5c-0.9,0.3-1.7,0.8-2.4,1.5c-0.7,0.6-1.3,1.3-1.7,2.2c-0.5,0.8-0.8,1.7-1,2.7C14.3,65.8,14.2,66.8,14.2,67.9z
	 M16.1,67.9c0-1.2,0.1-2.2,0.4-3.1c0.3-0.9,0.6-1.7,1-2.3c0.4-0.7,0.9-1.2,1.5-1.6c0.6-0.4,1.2-0.7,1.8-1c0.7-0.2,1.3-0.3,2-0.3
	c0.7,0,1.3,0.1,2,0.3c0.6,0.2,1.3,0.5,1.8,1c0.6,0.4,1.1,1,1.5,1.6c0.4,0.7,0.8,1.4,1,2.3c0.2,0.9,0.4,1.9,0.4,3.1
	c0,1.2-0.1,2.2-0.4,3.1c-0.3,0.9-0.6,1.7-1,2.3c-0.4,0.7-0.9,1.2-1.5,1.6c-0.6,0.4-1.2,0.7-1.8,0.9c-0.7,0.2-1.3,0.3-2,0.3
	c-0.7,0-1.3-0.1-2-0.3c-0.6-0.2-1.3-0.5-1.8-0.9c-0.6-0.4-1.1-1-1.5-1.6c-0.4-0.7-0.8-1.4-1-2.3C16.2,70,16.1,69,16.1,67.9z
	 M35.8,58.2v19.2h1.8V62.4l-0.1-2.2h0.1l1,2.1l9.2,15.3h2.3V58.2h-1.8v15.1l0.1,2.2h-0.1l-0.9-1.8l-9.4-15.6L35.8,58.2z M54.3,76.8
	c0.7,0.3,1.5,0.5,2.2,0.6c0.7,0.1,1.5,0.2,2.3,0.2c1.1,0,2.1-0.2,2.9-0.4c0.8-0.3,1.5-0.7,2-1.1c0.5-0.5,0.9-1,1.1-1.6
	c0.2-0.6,0.4-1.2,0.4-1.9c0-0.8-0.1-1.4-0.3-2c-0.2-0.6-0.5-1.1-1-1.5c-0.4-0.4-0.9-0.8-1.5-1.2c-0.6-0.4-1.2-0.8-2-1.1
	c-0.6-0.3-1.1-0.6-1.6-0.9c-0.5-0.3-0.9-0.5-1.3-0.8c-0.4-0.3-0.7-0.6-0.9-1c-0.2-0.4-0.3-0.8-0.3-1.3c0-0.2,0-0.5,0.1-0.8
	c0.1-0.3,0.2-0.6,0.3-0.9c0.2-0.3,0.4-0.5,0.7-0.8c0.3-0.2,0.7-0.4,1.2-0.6c0.5-0.1,1.1-0.2,1.8-0.2c0.6,0,1.3,0.1,1.9,0.2
	c0.7,0.1,1.3,0.3,2,0.6l0.2-1.7c-0.7-0.2-1.5-0.4-2.1-0.5c-0.7-0.1-1.4-0.2-2-0.2c-1,0-1.8,0.1-2.5,0.3c-0.7,0.2-1.2,0.5-1.7,0.8
	c-0.5,0.3-0.8,0.7-1.1,1.1c-0.3,0.4-0.4,0.8-0.6,1.3c-0.1,0.4-0.2,0.9-0.2,1.3c0,0.8,0.1,1.4,0.4,2c0.3,0.5,0.6,1,1.1,1.4
	c0.4,0.4,0.9,0.8,1.4,1c0.5,0.3,1,0.6,1.5,0.8c0.5,0.3,1.1,0.6,1.6,0.9c0.5,0.3,1,0.6,1.4,1c0.4,0.4,0.7,0.8,1,1.2
	c0.2,0.5,0.4,1,0.4,1.6c0,0.5-0.1,0.9-0.3,1.3c-0.2,0.4-0.4,0.7-0.7,0.9c-0.3,0.3-0.7,0.5-1,0.6c-0.4,0.2-0.8,0.3-1.2,0.4
	c-0.4,0.1-0.8,0.1-1.2,0.1c-0.4,0-0.9,0-1.4-0.1c-0.5-0.1-1-0.2-1.5-0.4c-0.5-0.2-1-0.3-1.4-0.6L54.3,76.8z M66.4,58.2v1.6h5.8v17.7
	H74V59.8h5.8v-1.6L66.4,58.2z M86.3,58.2l-7.6,19.2h2l2.1-5.3h9.5l2.1,5.3h2l-7.6-19.2H86.3z M87.5,60l0.6,1.8l3.5,8.8h-8.3l3.5-8.8
	L87.5,60L87.5,60z M99.4,58.2v19.2h1.8V62.4l-0.1-2.2h0.1l1,2.1l9.2,15.3h2.3V58.2H112v15.1l0.1,2.2H112l-0.9-1.8l-9.4-15.6
	L99.4,58.2z M117,58.2v1.6h5.8v17.7h1.8V59.8h5.8v-1.6L117,58.2z M133.5,58.2v19.2h1.8V58.2H133.5z M140.8,58.2v19.2h1.8V62.4
	l-0.1-2.2h0.1l1,2.1l9.2,15.3h2.3V58.2h-1.8v15.1l0.1,2.2h-0.1l-0.9-1.8l-9.4-15.6L140.8,58.2z M180.3,75.2c-0.5,0.2-1,0.4-1.5,0.5
	c-0.5,0.1-1.1,0.2-1.7,0.3c-0.6,0.1-1.2,0.1-1.7,0.1c-1,0-2-0.2-2.9-0.5c-0.9-0.4-1.7-0.9-2.4-1.6c-0.7-0.7-1.2-1.5-1.6-2.5
	c-0.4-1-0.6-2.1-0.6-3.3c0-1.2,0.2-2.3,0.5-3.4c0.3-1,0.9-2,1.5-2.7c0.7-0.8,1.5-1.4,2.4-1.8c1-0.4,2-0.7,3.2-0.7c0.2,0,0.5,0,0.9,0
	c0.4,0,0.9,0.1,1.5,0.2c0.6,0.1,1.3,0.3,2,0.6l0.2-1.6c-0.5-0.2-0.9-0.3-1.4-0.4c-0.5-0.1-0.9-0.2-1.4-0.2c-0.5-0.1-1-0.1-1.6-0.1
	c-1.4,0-2.6,0.2-3.7,0.6c-1.1,0.4-2,0.9-2.8,1.5c-0.8,0.7-1.4,1.4-1.9,2.3c-0.5,0.9-0.9,1.8-1.1,2.8c-0.2,1-0.3,2-0.3,3
	c0,1,0.1,1.9,0.4,2.9c0.2,0.9,0.6,1.8,1.1,2.6c0.5,0.8,1.1,1.5,1.9,2.1c0.8,0.6,1.7,1.1,2.7,1.4c1,0.3,2.2,0.5,3.6,0.5
	c0.7,0,1.3,0,1.9-0.1c0.6-0.1,1.1-0.2,1.6-0.3c0.5-0.1,0.9-0.2,1.3-0.4V75.2z M183.9,58.2v19.2h1.8v-9.2h10v9.2h1.8V58.2h-1.8v8.5
	h-10v-8.5H183.9z M208.3,58.2l-7.6,19.2h2l2.1-5.3h9.5l2.1,5.3h2l-7.6-19.2H208.3z M209.5,60l0.6,1.8l3.5,8.8h-8.3l3.5-8.8L209.5,60
	L209.5,60z M216.4,58.2l7.2,11.2v8h1.8v-8l7.6-11.2h-2.2l-5.4,8.3l-0.9,1.3l-0.7-1.1l-5.4-8.5L216.4,58.2z M236,58.2v19.2h1.8v-8.8
	v-0.9l0,0l0.5,0.5l9.2,9.2h2.6l-10.4-10.1l9.3-9.1h-2.3l-8.2,8.2l-0.7,0.7h0V66v-7.8L236,58.2z M253.4,58.2v19.2h1.8V58.2H253.4z
	 M260.7,58.2v19.2h1.8V62.4l-0.1-2.2h0.1l1,2.1l9.2,15.3h2.3V58.2h-1.8v15.1l0.1,2.2h-0.1l-0.9-1.8L263,58.2L260.7,58.2z"/>
<path id="path3726" inkscape:connector-curvature="0" class="st0" d="M126.8,36.5l-2.2,2.1h25.8l-2.2-2.1l-2.1-2.1h-8.6L103.2,0
	l34.4,25.8L172,0l-34.4,34.4H129L126.8,36.5z"/>
</svg>
