<svg width="121" height="12" viewBox="0 0 121 12" fill="none" xmlns="http://www.w3.org/2000/svg">
<path d="M5.91 11.15C4.42 11.15 3.16 10.625 2.13 9.575C1.11 8.525 0.6 7.25 0.6 5.75C0.6 4.25 1.11 2.975 2.13 1.925C3.16 0.875 4.42 0.349999 5.91 0.349999C7.39 0.349999 8.64 0.875 9.66 1.925C10.68 2.975 11.19 4.25 11.19 5.75C11.19 7.25 10.68 8.525 9.66 9.575C8.64 10.625 7.39 11.15 5.91 11.15ZM2.91 8.81C3.72 9.65 4.715 10.07 5.895 10.07C7.075 10.07 8.07 9.65 8.88 8.81C9.69 7.97 10.095 6.95 10.095 5.75C10.095 4.55 9.69 3.53 8.88 2.69C8.07 1.85 7.075 1.43 5.895 1.43C4.715 1.43 3.72 1.85 2.91 2.69C2.1 3.53 1.695 4.55 1.695 5.75C1.695 6.95 2.1 7.97 2.91 8.81ZM12.917 11V0.499999H19.802V1.49H14.027V5.33H19.682V6.305H14.027V11H12.917ZM21.6182 11V0.499999H28.5032V1.49H22.7282V5.33H28.3832V6.305H22.7282V11H21.6182ZM30.2168 11V0.499999H31.3268V11H30.2168ZM38.3413 11.15C36.8513 11.15 35.5963 10.625 34.5763 9.575C33.5563 8.525 33.0463 7.25 33.0463 5.75C33.0463 4.25 33.5563 2.975 34.5763 1.925C35.5963 0.875 36.8513 0.349999 38.3413 0.349999C39.3513 0.349999 40.2713 0.609999 41.1013 1.13C41.9313 1.64 42.5613 2.325 42.9913 3.185L42.0163 3.695C41.6563 3.015 41.1513 2.475 40.5013 2.075C39.8513 1.665 39.1313 1.46 38.3413 1.46C37.1613 1.46 36.1663 1.88 35.3563 2.72C34.5563 3.55 34.1563 4.56 34.1563 5.75C34.1563 6.94 34.5563 7.955 35.3563 8.795C36.1663 9.625 37.1613 10.04 38.3413 10.04C39.1413 10.04 39.8663 9.835 40.5163 9.425C41.1763 9.015 41.6813 8.46 42.0313 7.76L43.0213 8.27C42.5813 9.14 41.9463 9.84 41.1163 10.37C40.2863 10.89 39.3613 11.15 38.3413 11.15ZM44.6455 11V0.499999H45.7555V11H44.6455ZM47.055 11L51.375 0.499999H52.545L56.97 11H55.77L54.84 8.765H49.17L48.255 11H47.055ZM49.53 7.76H54.465L51.975 1.775H51.945L49.53 7.76ZM58.2686 11V0.499999H59.3786V9.98H65.0486V11H58.2686ZM69.9141 11V0.499999H71.1741L75.3441 8.015L79.4991 0.499999H80.7591V11H79.6641V2.375L75.7791 9.29H74.8941L71.0241 2.39V11H69.9141ZM83.0098 11V0.499999H89.8948V1.49H84.1198V5.24H89.7748V6.215H84.1198V10.01H89.8948V11H83.0098ZM99.2277 11H97.9977L95.7477 6.725H95.7027H92.7327V11H91.6377V0.499999H95.7027C96.6627 0.499999 97.4627 0.779999 98.1027 1.34C98.7527 1.9 99.0777 2.66 99.0777 3.62C99.0777 4.38 98.8677 5.015 98.4477 5.525C98.0377 6.035 97.4877 6.385 96.7977 6.575L99.2277 11ZM92.7327 1.475V5.765H95.6127C96.3227 5.765 96.8927 5.575 97.3227 5.195C97.7627 4.805 97.9827 4.285 97.9827 3.635C97.9827 2.985 97.7627 2.465 97.3227 2.075C96.8927 1.675 96.3227 1.475 95.6127 1.475H92.7327ZM105.329 11.15C103.839 11.15 102.584 10.625 101.564 9.575C100.544 8.525 100.034 7.25 100.034 5.75C100.034 4.25 100.544 2.975 101.564 1.925C102.584 0.875 103.839 0.349999 105.329 0.349999C106.339 0.349999 107.259 0.609999 108.089 1.13C108.919 1.64 109.549 2.325 109.979 3.185L109.004 3.695C108.644 3.015 108.139 2.475 107.489 2.075C106.839 1.665 106.119 1.46 105.329 1.46C104.149 1.46 103.154 1.88 102.344 2.72C101.544 3.55 101.144 4.56 101.144 5.75C101.144 6.94 101.544 7.955 102.344 8.795C103.154 9.625 104.149 10.04 105.329 10.04C106.129 10.04 106.854 9.835 107.504 9.425C108.164 9.015 108.669 8.46 109.019 7.76L110.009 8.27C109.569 9.14 108.934 9.84 108.104 10.37C107.274 10.89 106.349 11.15 105.329 11.15ZM111.75 11V0.499999H112.86V5.225H118.995V0.499999H120.09V11H118.995V6.275H112.86V11H111.75Z" fill="black"/>
</svg>
